inDegrees=yes
name=ik_S41_A05_T03
DataType=double
version=3
OpenSimVersion=4.3-2021-08-27-4bc7ad9
endheader
time	pelvis_tilt	pelvis_list	pelvis_rotation	pelvis_tx	pelvis_ty	pelvis_tz	hip_flexion_r	hip_adduction_r	hip_rotation_r	knee_angle_r	knee_angle_r_beta	ankle_angle_r	subtalar_angle_r	mtp_angle_r	hip_flexion_l	hip_adduction_l	hip_rotation_l	knee_angle_l	knee_angle_l_beta	ankle_angle_l	subtalar_angle_l	mtp_angle_l	lumbar_extension	lumbar_bending	lumbar_rotation	arm_flex_r	arm_add_r	arm_rot_r	elbow_flex_r	pro_sup_r	wrist_flex_r	wrist_dev_r	arm_flex_l	arm_add_l	arm_rot_l	elbow_flex_l	pro_sup_l	wrist_flex_l	wrist_dev_l
0	0	0	0	0	0.9399999999999999	0	0	0	0	0	0	0	0	0	0	0	0	0	0	0	0	0	0	0	0	0	0	0	0	89.99999999963507	0	0	0	0	0	0	89.99999999869995	0	0
0.02	-10.17581325416943	-6.472555229952633	28.42501343132908	0	0.9399999999999999	0	2.578138356597744	-1.202912278952712	-0.8676501621029314	4.01580328606113	0.07008898945417444	0	0	0	2.578138356597744	-1.202912278952712	-0.8676501621029314	4.01580328606113	0.07008898945417444	0	0	0	-9.937035397688	-5.228062398665354	11.45929248355554	24.8962852494336	-9.638069088853063	-18.73683958778819	7.793021876451061	60.8670407499109	0	0	27.10508985139483	1.628386110998211	5.762618269513653	21.92326314723763	82.71403205087226	0	0
0.04	-10.17563058775771	-6.473034353136056	28.46664215269862	0	0.9399999999999999	0	2.706976826945199	-1.254922622777874	-0.9166109282191396	4.076933314822089	0.07115590972789199	0	0	0	2.706976826945199	-1.254922622777874	-0.9166109282191396	4.076933314822089	0.07115590972789199	0	0	0	-9.943258270437262	-5.215116139803556	11.42583993498148	25.03323820127541	-9.69845023009578	-18.70683344575481	7.65244555215569	60.88635447472932	0	0	27.09966023119355	1.628246610888902	5.749796603666591	21.95600237491773	82.72750734297986	0	0
0.06	-10.182436015144	-6.478449864452715	28.49061413361656	0	0.9399999999999999	0	2.815182285051106	-1.302228882608847	-0.9567105642500159	4.153612142037358	0.07249420772936627	0	0	0	2.815182285051106	-1.302228882608847	-0.9567105642500159	4.153612142037358	0.07249420772936627	0	0	0	-9.956787833653225	-5.205922948785606	11.39748718939786	25.18386886811877	-9.750858868806805	-18.65011537236834	7.530973488574642	60.89876475701936	0	0	27.14191493246829	1.637661097091438	5.742898911206116	21.94244252017264	82.72834130474705	0	0
0.08	-10.17560397767705	-6.481702335061657	28.56993329051708	0	0.9399999999999999	0	3.136881779791457	-1.43137299957118	-1.077546327104983	4.307854010891219	0.07518623618529544	0	0	0	3.136881779791457	-1.43137299957118	-1.077546327104983	4.307854010891219	0.07518623618529544	0	0	0	-9.964796902601961	-5.185935369635088	11.34260354919186	25.28250964182314	-9.781332147504852	-18.61346786507922	7.430233619469869	60.914343953018	0	0	27.13938322473469	1.649014911440011	5.752290599903795	21.93418884610112	82.74651903071671	0	0
0.1	-10.1326694554801	-6.508825262193016	28.90326716192822	0	0.9399999999999999	0	5.541237867404463	-2.543156933806925	-1.928493712147821	6.814205278243528	0.1189303180121259	0	0	0	5.541237867404463	-2.543156933806925	-1.928493712147821	6.814205278243528	0.1189303180121259	0	0	0	-10.00550394578959	-5.075100207986798	11.02951514273731	25.3341138981875	-9.799978692807846	-18.59409685069485	7.347435042051946	60.9068533920862	0	0	27.14462023592398	1.657637629105563	5.758131910126751	21.89478587623036	82.74145749225094	0	0
0.12	-10.11828038887558	-6.525635533302016	28.95809713156076	0	0.9399999999999999	0	7.243791171876543	-3.233511747534628	-2.509104874903593	8.421519956281621	0.1469832512595232	0	0	0	7.243791171876543	-3.233511747534628	-2.509104874903593	8.421519956281621	0.1469832512595232	0	0	0	-10.03430979494819	-5.0407447697348	10.96677294876838	25.41705281404145	-9.807805827798045	-18.59116266194089	7.349230498269077	60.94571085920015	0	0	27.17891582460138	1.669018535291504	5.747772053576253	21.85793798989161	82.72335933522042	0	0
0.14	-10.11281628353247	-6.533847970102989	29.01265819143115	0	0.9399999999999999	0	8.022072321924425	-3.552268893023135	-2.766573740392427	9.268806986376809	0.1617711996441285	0	0	0	8.022072321924425	-3.552268893023135	-2.766573740392427	9.268806986376809	0.1617711996441285	0	0	0	-10.04239523728367	-5.024422298657083	10.92860197443044	25.46196137501407	-9.830216775621443	-18.66644824483071	7.397900510251619	60.81815406382757	0	0	27.17311876277797	1.666597663888361	5.757019091019947	21.89625816706207	82.71486542461999	0	0
0.16	-10.10165341585716	-6.546415948127882	29.07086239538263	0	0.9399999999999999	0	8.910712670188223	-3.877125607020367	-3.055581888657196	10.10862108677889	0.1764287208008191	0	0	0	8.910712670188223	-3.877125607020367	-3.055581888657196	10.10862108677889	0.1764287208008191	0	0	0	-10.05268470880904	-5.014070796647531	10.89072245142168	25.54346956997142	-9.840042879652199	-18.70529455328407	7.317074600735884	60.75483547092007	0	0	27.17456676460057	1.682416422942342	5.765564065281674	21.85988015405746	82.72445215966466	0	0
0.18	-10.09852074342808	-6.544878601947337	29.08100317459979	0	0.9399999999999999	0	9.011207801713239	-3.917428343587123	-3.088752637898346	10.21240554571554	0.1782401013216644	0	0	0	9.011207801713239	-3.917428343587123	-3.088752637898346	10.21240554571554	0.1782401013216644	0	0	0	-10.05302671010426	-5.006236882888545	10.8715706962404	25.57871491771506	-9.836740567434976	-18.68530339783635	7.390046336526111	60.7414157111975	0	0	27.15332649645818	1.663085158580621	5.748113958143795	21.90883812154534	82.73329715348792	0	0
0.2	-10.103910335247	-6.558513060082932	29.07664797574401	0	0.9399999999999999	0	9.142524127740684	-3.964757960300803	-3.131174626152696	10.33465352841477	0.1803737311236871	0	0	0	9.142524127740684	-3.964757960300803	-3.131174626152696	10.33465352841477	0.1803737311236871	0	0	0	-10.06714059612789	-5.00975526501129	10.86815083906179	25.66770310855297	-9.826014639595943	-18.65133201289467	7.400550550595313	60.53259636927219	0	0	27.18203566042146	1.657213145501547	5.742447822940907	21.90271021032571	82.74883346951412	0	0
0.22	-10.09378965369384	-6.556484671035319	29.08123112810362	0	0.9399999999999999	0	9.320027841855195	-4.026783130084388	-3.188521228075283	10.49135517300556	0.1831086907650863	0	0	0	9.320027841855195	-4.026783130084388	-3.188521228075283	10.49135517300556	0.1831086907650863	0	0	0	-10.06088432889427	-5.004616142019039	10.86038378341094	25.69465449146491	-9.809794620893234	-18.6625970229388	7.361520161350304	60.50892183307077	0	0	27.15347191059974	1.652897569138976	5.730468513512142	21.98627465261827	82.73929313922886	0	0
0.24	-10.09535024988979	-6.576088602536832	29.12289520943973	0	0.9399999999999999	0	10.00796245398534	-4.29217481052047	-3.410625959564342	11.22909745082819	0.1959847225442539	0	0	0	10.00796245398534	-4.29217481052047	-3.410625959564342	11.22909745082819	0.1959847225442539	0	0	0	-10.08016926020418	-4.99693795113269	10.82796419841609	25.79873954814055	-9.824156552313525	-18.71814231901133	7.370182325739237	60.277227829395	0	0	27.19402824164077	1.644397299440595	5.753412544521575	21.92218628780124	82.7212068970512	0	0
0.26	-10.09908188672386	-6.578003301979432	29.10721507185658	0	0.9399999999999999	0	10.01945945140789	-4.297405693027823	-3.414492956544727	11.24284290713004	0.1962246260139102	0	0	0	10.01945945140789	-4.297405693027823	-3.414492956544727	11.24284290713004	0.1962246260139102	0	0	0	-10.0828255228404	-5.000460482772677	10.84516813117065	25.88465471493593	-9.845793264252109	-18.80032618928282	7.344171666855521	60.10804171696938	0	0	27.1996697483694	1.644439222111639	5.752771043843915	21.91283669782332	82.71451856698452	0	0
0.28	-10.10170605136975	-6.577326086453414	29.08763326700756	0	0.9399999999999999	0	10.03410197140512	-4.304069117874922	-3.419418989393752	11.26033633578975	0.1965299439414849	0	0	0	10.03410197140512	-4.304069117874922	-3.419418989393752	11.26033633578975	0.1965299439414849	0	0	0	-10.08310278648127	-5.002628319112425	10.86427365145972	25.96568811009051	-9.86494912453467	-18.87682411377987	7.30556866611737	59.87531104926028	0	0	27.18085959909235	1.650471330503923	5.73933378869211	21.92574409385366	82.74452073764442	0	0
0.3	-10.10218119888549	-6.582439157237275	29.05786165943122	0	0.9399999999999999	0	10.04752201787974	-4.310177259755548	-3.423934684862519	11.27635703571902	0.1968095579037247	0	0	0	10.04752201787974	-4.310177259755548	-3.423934684862519	11.27635703571902	0.1968095579037247	0	0	0	-10.08449157245053	-5.010399259453407	10.88052356826223	26.05150678538128	-9.894550155936168	-18.98248715326284	7.300578638193021	59.61141310200236	0	0	27.19341143270262	1.645478684842283	5.723580491901101	21.92702289552456	82.73806206745184	0	0
0.32	-10.10425385922799	-6.592383201077573	29.02999136973628	0	0.9399999999999999	0	10.06112731334678	-4.316352960713929	-3.428507647544687	11.29261106009373	0.1970932441457628	0	0	0	10.06112731334678	-4.316352960713929	-3.428507647544687	11.29261106009373	0.1970932441457628	0	0	0	-10.08819257490598	-5.024825152845618	10.91022127836732	26.11812309676077	-9.905467328720595	-19.0656731226868	7.323454730646366	59.19802406213741	0	0	27.22121311904464	1.649023413764612	5.725828730525188	21.92225056175133	82.72983113131137	0	0
0.34	-10.10321695660175	-6.603102862694071	28.99560157146563	0	0.9399999999999999	0	10.07035328844824	-4.320505660369357	-3.431597150438073	11.30367448798838	0.1972863373890815	0	0	0	10.07035328844824	-4.320505660369357	-3.431597150438073	11.30367448798838	0.1972863373890815	0	0	0	-10.08900900528949	-5.042704793519245	10.9441404021944	26.19519006697251	-9.904097810736921	-19.13618426792403	7.336656565288093	58.73442235789912	0	0	27.22977381114426	1.635710840811227	5.706602168035363	21.93292099488887	82.75506452814669	0	0
0.36	-10.09957195869458	-6.597906094240256	28.94003744633065	0	0.9399999999999999	0	10.08611305613574	-4.327661769459081	-3.436896234525005	11.32247751092209	0.1976145120486026	0	0	0	10.08611305613574	-4.327661769459081	-3.436896234525005	11.32247751092209	0.1976145120486026	0	0	0	-10.07925985725079	-5.049454190042036	10.98537383452247	26.34876492734111	-9.955098560817367	-19.22629637443572	7.34224567861061	58.00227300496162	0	0	27.2174294132263	1.642297512125562	5.683760584120721	21.93442875725656	82.75148780205076	0	0
